Coordinates
version=1
nRows=39
nColumns=30
inDegrees=yes

Units are S.I. units (second, meters, Newtons, ...)
Angles are in degrees.

endheader
time	floatyaw	floatroll	floatpitch	floatx	floaty	floatz	pro_sup_l	deviation_l	flexion_l	cmc_flexion_l	cmc_abduction_l	mp_flexion_l	ip_flexion_l	2mcp_flexion_l	2mcp_abduction_l	2pm_flexion_l	2md_flexion_l	3mcp_flexion_l	3mcp_abduction_l	3pm_flexion_l	3md_flexion_l	4mcp_flexion_l	4mcp_abduction_l	4pm_flexion_l	4md_flexion_l	5mcp_flexion_l	5mcp_abduction_l	5pm_flexion_l	5md_flexion_l
0.005000	-160.147433	-5.066637	-73.570646	-0.059775	-0.109458	-0.123166	112.063864	27.377469	-7.058136	-1.141021	36.674386	-27.211554	-51.797280	34.530933	13.784406	69.788248	66.382626	49.562561	6.722621	78.134612	56.222520	51.042089	-5.848209	81.886136	65.919984	39.535942	-14.703637	84.068392	69.375146
0.015000	-160.147433	-5.066637	-73.570646	-0.059849	-0.105234	-0.121986	109.972955	27.331749	-5.512974	-1.063514	37.296372	-28.168246	-53.661345	38.355440	14.526071	66.985979	67.220047	52.400561	6.655353	77.596124	57.606367	53.795799	-5.923823	82.508878	67.095603	40.515859	-14.819166	84.994893	70.578070
0.025000	-160.147433	-5.066637	-73.570646	-0.059544	-0.100982	-0.120830	108.057803	27.141086	-4.174534	-0.738391	37.628986	-28.867235	-55.002865	41.865715	15.136699	63.284144	67.178850	54.808468	6.612816	75.851255	58.446313	55.604877	-5.967552	82.247779	67.681884	40.560440	-14.917922	85.225603	71.409313
0.035000	-160.147433	-5.066637	-73.570646	-0.059083	-0.097153	-0.119872	106.343094	26.830478	-2.967583	-0.399663	37.707440	-29.366890	-55.826468	44.827605	15.636831	59.509712	66.692247	56.821786	6.605203	73.698396	58.983129	56.756658	-5.998561	81.565780	68.002515	40.170955	-15.044731	85.078970	72.065422
0.045000	-160.147433	-5.066637	-73.570646	-0.058624	-0.094089	-0.119204	104.879056	26.444085	-1.855086	-0.212124	37.638369	-29.764878	-56.282330	47.091335	16.033194	56.323372	66.142412	58.444422	6.618901	71.782388	59.365588	57.523858	-6.029876	80.783230	68.229481	39.728060	-15.197099	84.815328	72.639276
0.055000	-160.147433	-5.066637	-73.570646	-0.058242	-0.091946	-0.118830	103.709165	26.027927	-0.853849	-0.240184	37.530002	-30.147005	-56.561491	48.642048	16.333518	54.072333	65.791501	59.686943	6.634069	70.453185	59.654905	58.094894	-6.068329	80.077268	68.411081	39.423594	-15.351358	84.592590	73.151891
0.065000	-160.147433	-5.066637	-73.570646	-0.057942	-0.090677	-0.118678	102.837291	25.621647	-0.009332	-0.458844	37.435910	-30.551612	-56.794252	49.585561	16.552385	52.772644	65.739974	60.581766	6.637206	69.763702	59.858889	58.551338	-6.114754	79.529318	68.531271	39.274523	-15.482747	84.474167	73.586083
0.075000	-160.147433	-5.066637	-73.570646	-0.057693	-0.090078	-0.118637	102.219346	25.258464	0.648774	-0.791621	37.337225	-30.965584	-57.004931	50.085750	16.707729	52.206256	65.932093	61.176190	6.625527	69.565312	59.966710	58.890733	-6.164862	79.168707	68.560187	39.193642	-15.575262	84.463096	73.908221
0.085000	-160.147433	-5.066637	-73.570646	-0.057455	-0.089875	-0.118602	101.783654	24.967137	1.135050	-1.152227	37.162353	-31.347634	-57.133097	50.295051	16.814756	52.065761	66.212013	61.516638	6.604738	69.631553	59.972634	59.071129	-6.211357	78.990486	68.483920	39.069784	-15.623978	84.531623	74.084522
0.095000	-160.147433	-5.066637	-73.570646	-0.057197	-0.089818	-0.118504	101.464189	24.771223	1.501478	-1.471967	36.822394	-31.659850	-57.090771	50.309855	16.882708	52.075797	66.406913	61.634701	6.583822	69.756039	59.889374	59.047732	-6.246829	78.957570	68.316613	38.816466	-15.633316	84.633355	74.097923
0.105000	-160.147433	-5.066637	-73.570646	-0.056898	-0.089744	-0.118318	101.225566	24.685271	1.803684	-1.706873	36.241176	-31.887080	-56.813982	50.161194	16.915607	52.055106	66.400477	61.541732	6.570245	69.803728	59.752802	58.788042	-6.266338	79.007140	68.098649	38.379440	-15.613534	84.706223	73.961491
0.115000	-160.147433	-5.066637	-73.570646	-0.056535	-0.089598	-0.118062	101.067743	24.710456	2.066223	-1.830014	35.373525	-32.035442	-56.285397	49.835782	16.915530	51.922818	66.169290	61.236379	6.567481	69.720326	59.617112	58.273720	-6.268855	79.069191	67.883378	37.724656	-15.576961	84.681043	73.720181
0.125000	-160.147433	-5.066637	-73.570646	-0.056094	-0.089415	-0.117776	101.011741	24.832446	2.270086	-1.820856	34.216240	-32.117046	-55.530732	49.314046	16.886271	51.673326	65.775606	60.723875	6.575005	69.515803	59.540273	57.505001	-6.257329	79.089825	67.717431	36.834837	-15.535081	84.501675	73.437866
0.135000	-160.147433	-5.066637	-73.570646	-0.055572	-0.089267	-0.117504	101.076873	25.023115	2.368868	-1.662746	32.815062	-32.136241	-54.605087	48.606843	16.835535	51.344499	65.327954	60.037363	6.589739	69.238204	59.563798	56.513186	-6.237583	79.047096	67.623167	35.724125	-15.496847	84.149372	73.174892
0.145000	-160.147433	-5.066637	-73.570646	-0.054994	-0.089218	-0.117284	101.262089	25.246307	2.322377	-1.351784	31.263061	-32.088286	-53.581560	47.772978	16.774600	50.992404	64.930487	59.247052	6.607789	68.948259	59.695427	55.371919	-6.216446	78.952659	67.592082	34.455957	-15.467915	83.656563	72.966976
0.155000	-160.147433	-5.066637	-73.570646	-0.054410	-0.089287	-0.117140	101.539916	25.466358	2.127354	-0.909780	29.682433	-31.969707	-52.543067	46.908389	16.715472	50.673262	64.643457	58.447998	6.625696	68.698954	59.904603	54.193340	-6.199704	78.840619	67.593756	33.141215	-15.450270	83.098987	72.815943
0.165000	-160.147433	-5.066637	-73.570646	-0.053880	-0.089443	-0.117073	101.864155	25.656808	1.827774	-0.388439	28.189979	-31.790167	-51.571228	46.112674	16.666894	50.428772	64.470278	57.730162	6.641033	68.521431	60.135545	53.103860	-6.190529	78.750751	67.596959	31.907508	-15.442131	82.567193	72.696567
0.175000	-160.147433	-5.066637	-73.570646	-0.053448	-0.089625	-0.117070	102.186047	25.806085	1.499295	0.143073	26.861129	-31.574880	-50.729074	45.451429	16.631358	50.275209	64.372036	57.146556	6.652511	68.419228	60.332172	52.208027	-6.188981	78.714311	67.590972	30.853089	-15.438614	82.131043	72.574624
0.185000	-160.147433	-5.066637	-73.570646	-0.053129	-0.089769	-0.117101	102.470614	25.917862	1.217241	0.622527	25.713494	-31.354559	-50.043154	44.935159	16.605026	50.201952	64.295797	56.697793	6.659876	68.372985	60.460587	51.557173	-6.192754	78.747218	67.592465	30.011979	-15.433590	81.815837	72.425039
0.195000	-160.147433	-5.066637	-73.570646	-0.052906	-0.089837	-0.117136	102.705745	26.006006	1.026263	1.016242	24.719650	-31.150641	-49.496653	44.525357	16.580765	50.182691	64.198992	56.341689	6.663727	68.354133	60.516583	51.137337	-6.198709	78.849780	67.631381	29.350644	-15.422332	81.602076	72.240556
0.205000	-160.147433	-5.066637	-73.570646	-0.052739	-0.089830	-0.117156	102.900663	26.086515	0.927315	1.324370	23.838971	-30.967607	-49.041495	44.162402	16.552504	50.193059	64.060669	56.021524	6.665257	68.340397	60.517153	50.881182	-6.204339	79.008835	67.724951	28.796583	-15.403641	81.446089	72.029427
0.215000	-160.147433	-5.066637	-73.570646	-0.052590	-0.089777	-0.117154	103.075818	26.170161	0.886198	1.568306	23.046577	-30.797810	-48.625274	43.798404	16.518323	50.222242	63.881588	55.696201	6.665883	68.324164	60.485848	50.697924	-6.208460	79.199789	67.859469	28.280115	-15.380184	81.306370	71.807867
0.225000	-160.147433	-5.066637	-73.570646	-0.052435	-0.089718	-0.117138	103.250244	26.258933	0.855855	1.771348	22.342173	-30.633728	-48.218124	43.417302	16.480670	50.271273	63.679091	55.356133	6.666778	68.310107	60.442504	50.508162	-6.211051	79.390278	67.994202	27.765000	-15.356828	81.160180	71.593271
0.235000	-160.147433	-5.066637	-73.570646	-0.052271	-0.089688	-0.117122	103.432679	26.347164	0.799211	1.946583	21.737281	-30.477586	-47.824341	43.033847	16.444164	50.342756	63.479280	55.018751	6.668482	68.306724	60.400134	50.268716	-6.212651	79.548145	68.083996	27.253585	-15.338010	81.005363	71.399618
0.245000	-160.147433	-5.066637	-73.570646	-0.052103	-0.089702	-0.117121	103.619716	26.425791	0.701969	2.097727	21.233911	-30.341902	-47.473818	42.676276	16.412761	50.432985	63.306620	54.710096	6.670788	68.319501	60.365313	49.977431	-6.213805	79.652280	68.103027	26.769562	-15.325694	80.852565	71.233763
0.255000	-160.147433	-5.066637	-73.570646	-0.051944	-0.089756	-0.117139	103.800020	26.486914	0.572237	2.227598	20.811495	-30.241948	-47.200664	42.365946	16.388052	50.532494	63.173441	54.445971	6.672954	68.349363	60.338643	49.658787	-6.214826	79.700346	68.053881	26.333910	-15.318929	80.715664	71.092877
0.265000	-160.147433	-5.066637	-73.570646	-0.051802	-0.089835	-0.117176	103.960870	26.526427	0.430983	2.344393	20.430878	-30.186467	-47.022809	42.106262	16.369267	50.631712	63.075243	54.223831	6.674154	68.394284	60.315801	49.341894	-6.215862	79.708064	67.960016	25.949843	-15.314878	80.604920	70.965656
0.275000	-160.147433	-5.066637	-73.570646	-0.051677	-0.089920	-0.117224	104.093224	26.544232	0.300411	2.460183	20.051684	-30.172898	-46.933598	41.885095	16.354411	50.724515	62.995986	54.027968	6.673918	68.450280	60.291103	49.044881	-6.217051	79.699879	67.851248	25.603282	-15.310429	80.523479	70.839020
0.285000	-160.147433	-5.066637	-73.570646	-0.051567	-0.089998	-0.117274	104.193555	26.543033	0.195868	2.583867	19.651382	-30.189071	-46.907109	41.686049	16.341558	50.806766	62.920308	53.841952	6.672372	68.510778	60.262616	48.772349	-6.218602	79.696352	67.752418	25.274600	-15.303526	80.466737	70.707429
0.295000	-160.147433	-5.066637	-73.570646	-0.051469	-0.090061	-0.117321	104.263009	26.527083	0.123111	2.715120	19.234915	-30.218716	-46.910421	41.499675	16.329669	50.873205	62.843524	53.659162	6.670152	68.566561	60.234664	48.522277	-6.220722	79.705625	67.678328	24.951753	-15.293744	80.424697	70.577882
0.305000	-160.147433	-5.066637	-73.570646	-0.051383	-0.090106	-0.117360	104.305581	26.501521	0.079593	2.844099	18.830302	-30.246932	-46.914718	41.327630	16.318751	50.917318	62.772419	53.485308	6.668068	68.608095	60.214983	48.293879	-6.223492	79.723391	67.632826	24.636424	-15.282131	80.387007	70.465705
0.315000	-160.147433	-5.066637	-73.570646	-0.051310	-0.090138	-0.117388	104.326907	26.472120	0.057298	2.956703	18.473283	-30.263669	-46.901966	41.178530	16.309451	50.934521	62.718217	53.332995	6.666680	68.628971	60.208894	48.090306	-6.226776	79.739606	67.610412	24.340875	-15.270481	80.347977	70.383924
0.325000	-160.147433	-5.066637	-73.570646	-0.051251	-0.090163	-0.117406	104.334241	26.444871	0.045313	3.041563	18.189086	-30.265469	-46.867806	41.059484	16.302296	50.925446	62.688124	53.212882	6.666058	68.627593	60.215355	47.915783	-6.230181	79.745941	67.600047	24.079310	-15.260356	80.307731	70.334176
0.335000	-160.147433	-5.066637	-73.570646	-0.051205	-0.090187	-0.117415	104.336885	26.425200	0.031668	3.094862	17.980239	-30.255898	-46.820750	40.968989	16.296978	50.897037	62.679409	53.126679	6.665802	68.606259	60.226903	47.770733	-6.233094	79.739014	67.589642	23.859802	-15.252289	80.268404	70.304846
0.345000	-160.147433	-5.066637	-73.570646	-0.051165	-0.090215	-0.117417	104.345737	26.417069	0.004929	3.121139	17.825951	-30.244048	-46.776696	40.895143	16.292086	50.861404	62.676880	53.065019	6.665293	68.569268	60.232084	47.648813	-6.234815	79.718886	67.568976	23.680937	-15.245559	80.228454	70.276480
0.355000	-160.147433	-5.066637	-73.570646	-0.051125	-0.090252	-0.117417	104.371158	26.422385	-0.043865	3.130459	17.692533	-30.240542	-46.749851	40.819889	16.285466	50.832542	62.655525	53.010611	6.664011	68.521565	60.219201	47.537882	-6.234807	79.685743	67.531191	23.533726	-15.238663	80.179664	70.231145
0.365000	-160.147433	-5.066637	-73.570646	-0.051075	-0.090295	-0.117419	104.419724	26.440881	-0.118967	3.133528	17.548838	-30.252075	-46.744227	40.726983	16.275049	50.821009	62.590191	52.945127	6.661802	68.467868	60.181172	47.424568	-6.232966	79.638187	67.474608	23.406603	-15.230223	80.109425	70.161236
0.375000	-160.147433	-5.066637	-73.570646	-0.051012	-0.090343	-0.117424	104.491556	26.470444	-0.218365	3.136976	17.378732	-30.277247	-46.750146	40.609416	16.259754	50.828980	62.468915	52.856945	6.659004	68.411922	60.119679	47.300196	-6.229729	79.574697	67.404374	23.290440	-15.219870	80.007544	70.072961
0.385000	-160.147433	-5.066637	-73.570646	-0.050940	-0.090393	-0.117431	104.579912	26.507840	-0.334168	3.140944	17.185073	-30.306529	-46.747638	40.472239	16.240044	50.849651	62.301162	52.746251	6.656378	68.356298	60.045185	47.165010	-6.225896	79.497070	67.331062	23.181312	-15.208664	79.873888	69.982128
